<svg width="21" height="21" viewBox="0 0 21 21" fill="none" xmlns="http://www.w3.org/2000/svg">
<path d="M10.5 20.334C7.90258 20.2998 5.42118 19.2527 3.58447 17.4158C1.74775 15.5789 0.700916 13.0974 0.666992 10.5C0.701174 7.90275 1.74812 5.4215 3.58481 3.58481C5.4215 1.74812 7.90275 0.701174 10.5 0.666992C13.0974 0.700916 15.5789 1.74775 17.4158 3.58447C19.2527 5.42118 20.2998 7.90258 20.334 10.5C20.2998 13.0975 19.2528 15.579 17.4159 17.4159C15.579 19.2528 13.0975 20.2998 10.5 20.334ZM4.41599 15.417C5.74432 17.0572 7.66839 18.1043 9.76699 18.329L11.447 15.417H4.41599ZM15.416 12.472L12.116 18.19C14.0718 17.7561 15.7923 16.6015 16.935 14.956L15.416 12.472ZM8.73199 7.54999L6.82599 10.408L8.51999 13.451H12.579L14.246 10.562L12.406 7.54999H8.73199ZM3.13199 7.81899C2.43229 9.63801 2.46816 11.658 3.23199 13.451H6.26699L3.13199 7.81899ZM14.711 7.54999L17.976 12.892C18.5619 11.1456 18.4872 9.24499 17.766 7.54999H14.711ZM9.61099 2.69099C8.55763 2.82553 7.54173 3.16903 6.62286 3.70136C5.704 4.23368 4.90068 4.94411 4.25999 5.79099L5.75099 8.47699L7.55099 5.77699V5.58399H7.68199L9.61099 2.69099ZM11.92 2.77399L10.043 5.58399H16.585C15.4071 4.12842 13.7546 3.13368 11.917 2.77399H11.92Z" fill="#6A7187"/>
</svg>
