<svg width="23" height="23" viewBox="0 0 23 23" fill="none" xmlns="http://www.w3.org/2000/svg">
<path d="M10.516 20.1985V18.2345H18.384V11.2515C18.39 10.3305 18.2058 9.41813 17.843 8.57154C17.1435 6.92156 15.83 5.60808 14.18 4.90854C13.3316 4.55155 12.4205 4.36766 11.5 4.36766C10.5796 4.36766 9.66841 4.55155 8.82002 4.90854C7.16966 5.60787 5.8558 6.92138 5.15602 8.57154C4.7932 9.41813 4.60903 10.3305 4.61502 11.2515V17.2515H3.63202C3.37336 17.2554 3.11665 17.2062 2.87775 17.1069C2.63885 17.0077 2.42283 16.8605 2.24302 16.6745C2.05694 16.4943 1.90968 16.278 1.81028 16.0388C1.71089 15.7996 1.66145 15.5426 1.66502 15.2835V13.3165C1.65706 12.9642 1.7508 12.617 1.93502 12.3165C2.11474 12.0307 2.35893 11.791 2.64802 11.6165L2.72202 10.3165C2.85091 9.17936 3.19755 8.07764 3.74302 7.07154C4.24984 6.13643 4.92519 5.30308 5.73502 4.61354C6.53063 3.94085 7.43758 3.41225 8.41502 3.05154C10.4158 2.31355 12.6142 2.31355 14.615 3.05154C15.5913 3.41194 16.4947 3.9451 17.282 4.62554C18.0817 5.32214 18.7521 6.15461 19.262 7.08454C19.8056 8.0785 20.1519 9.16815 20.282 10.2935L20.356 11.5725C20.6524 11.7216 20.9014 11.9502 21.0752 12.2328C21.249 12.5154 21.3407 12.8408 21.34 13.1725V15.4345C21.3462 15.7738 21.2523 16.1074 21.07 16.3935C20.8949 16.6674 20.6484 16.8884 20.357 17.0325V18.2325C20.3557 18.7548 20.1472 19.2551 19.7773 19.6237C19.4073 19.9923 18.9062 20.1991 18.384 20.1985H10.516ZM8.54902 13.3165C8.32629 13.3127 8.11174 13.232 7.9417 13.0881C7.77167 12.9442 7.65658 12.7459 7.61595 12.5269C7.57532 12.3079 7.61163 12.0815 7.71873 11.8862C7.82584 11.6909 7.99715 11.5386 8.20367 11.4551C8.41019 11.3716 8.63922 11.3621 8.85198 11.4281C9.06473 11.4941 9.24814 11.6316 9.37114 11.8173C9.49413 12.003 9.54916 12.2255 9.52691 12.4472C9.50466 12.6688 9.40648 12.876 9.24902 13.0335C9.15791 13.1261 9.04878 13.199 8.92837 13.2477C8.80797 13.2963 8.67885 13.3198 8.54902 13.3165ZM14.449 13.3165C14.2263 13.3127 14.0117 13.232 13.8417 13.0881C13.6717 12.9442 13.5566 12.7459 13.516 12.5269C13.4753 12.3079 13.5116 12.0815 13.6187 11.8862C13.7258 11.6909 13.8972 11.5386 14.1037 11.4551C14.3102 11.3716 14.5392 11.3621 14.752 11.4281C14.9647 11.4941 15.1481 11.6316 15.2711 11.8173C15.3941 12.003 15.4492 12.2255 15.4269 12.4472C15.4047 12.6688 15.3065 12.876 15.149 13.0335C15.058 13.126 14.9491 13.1988 14.8288 13.2475C14.7086 13.2961 14.5787 13.3196 14.449 13.3165ZM5.62402 11.7925C5.54728 10.8957 5.68649 9.99352 6.03002 9.16154C6.34239 8.41141 6.80175 7.73138 7.38102 7.16154C8.50247 6.08269 9.99299 5.47189 11.549 5.45354C12.9541 5.44204 14.3168 5.93415 15.3903 6.84073C16.4638 7.74731 17.1771 9.00839 17.401 10.3955C15.9167 10.3961 14.4643 9.9645 13.221 9.15354C12.0074 8.37872 11.0293 7.28616 10.393 5.99454C10.1454 7.29131 9.57482 8.50471 8.73402 9.52254C7.90808 10.5338 6.83711 11.317 5.62302 11.7975L5.62402 11.7925Z" fill="#E9420C"/>
</svg>
