<svg width="9" height="13" viewBox="0 0 9 13" fill="none" xmlns="http://www.w3.org/2000/svg">
<path d="M5.31938 0C4.53561 0 3.78394 0.311352 3.22973 0.865561C2.67552 1.41977 2.36417 2.17144 2.36417 2.95521V8.86563C2.36417 9.33511 2.55067 9.78537 2.88265 10.1174C3.21463 10.4493 3.66488 10.6358 4.13437 10.6358C4.60386 10.6358 5.05412 10.4493 5.3861 10.1174C5.71807 9.78537 5.90458 9.33511 5.90458 8.86563V2.95521H4.72833V8.86563C4.72833 8.94324 4.71305 9.0201 4.68334 9.09181C4.65364 9.16352 4.61011 9.22867 4.55522 9.28356C4.50034 9.33844 4.43518 9.38198 4.36347 9.41168C4.29177 9.44138 4.21491 9.45667 4.13729 9.45667C4.05968 9.45667 3.98282 9.44138 3.91111 9.41168C3.8394 9.38198 3.77425 9.33844 3.71936 9.28356C3.66448 9.22867 3.62094 9.16352 3.59124 9.09181C3.56154 9.0201 3.54625 8.94324 3.54625 8.86563V2.95521C3.54625 2.48495 3.73306 2.03395 4.06559 1.70142C4.39811 1.36889 4.84911 1.18208 5.31938 1.18208C5.78964 1.18208 6.24064 1.36889 6.57317 1.70142C6.90569 2.03395 7.0925 2.48495 7.0925 2.95521V8.93963C7.09104 9.32385 7.01305 9.70392 6.8631 10.0577C6.71314 10.4114 6.49422 10.7318 6.21912 11C5.94401 11.2682 5.61823 11.4789 5.26079 11.6199C4.90335 11.7608 4.52142 11.8291 4.13729 11.8208C3.35352 11.8208 2.60185 11.5095 2.04764 10.9553C1.49344 10.4011 1.18208 9.6494 1.18208 8.86563V5.91042H0V8.86563C-8.09034e-09 9.40856 0.106939 9.94618 0.31471 10.4478C0.522482 10.9494 0.827018 11.4052 1.21093 11.7891C1.59484 12.173 2.05061 12.4775 2.55222 12.6853C3.05382 12.8931 3.59144 13 4.13437 13C4.67731 13 5.21492 12.8931 5.71653 12.6853C6.21813 12.4775 6.6739 12.173 7.05781 11.7891C7.44173 11.4052 7.74626 10.9494 7.95403 10.4478C8.16181 9.94618 8.26874 9.40856 8.26874 8.86563V2.95521C8.26951 2.5674 8.19379 2.18325 8.04592 1.82474C7.89804 1.46623 7.68091 1.14041 7.40696 0.865914C7.13301 0.591421 6.80762 0.37365 6.4494 0.225065C6.09119 0.0764801 5.70719 -7.60831e-07 5.31938 0Z" fill="#74788D"/>
</svg>
