<svg width="23" height="23" viewBox="0 0 23 23" fill="none" xmlns="http://www.w3.org/2000/svg">
<path d="M19.367 20.501H3.634C3.11036 20.4983 2.60916 20.2881 2.24039 19.9163C1.87162 19.5445 1.66541 19.0416 1.667 18.518V7.61499C1.66541 7.09135 1.87162 6.58846 2.24039 6.21669C2.60916 5.84492 3.11036 5.63464 3.634 5.63199H6.584V3.64999C6.58214 3.12644 6.78813 2.62355 7.15674 2.25175C7.52536 1.87995 8.02645 1.66964 8.55 1.66699L14.45 1.66699C14.9736 1.66964 15.4748 1.87992 15.8436 2.25169C16.2124 2.62346 16.4186 3.12635 16.417 3.64999V5.63199H19.367C19.8906 5.63464 20.3918 5.84492 20.7606 6.21669C21.1294 6.58846 21.3356 7.09135 21.334 7.61499V18.515C21.3364 19.0392 21.1305 19.5428 20.7617 19.9152C20.3928 20.2877 19.8912 20.4983 19.367 20.501ZM3.634 12.567V18.515H19.367V12.567H13.467V14.55H9.533V12.567H3.634ZM3.634 7.61199V10.588H19.367V7.61499H3.634V7.61199ZM8.55 3.64999V5.63199H14.45V3.64999H8.55Z" fill="#E9420C"/>
</svg>
