<svg width="12" height="13" viewBox="0 0 12 13" fill="none" xmlns="http://www.w3.org/2000/svg">
<path d="M6 11.5C5.0111 11.5 4.0444 11.2068 3.22215 10.6573C2.39991 10.1079 1.75904 9.32705 1.3806 8.41342C1.00217 7.49979 0.90315 6.49446 1.09608 5.52455C1.289 4.55465 1.76521 3.66373 2.46447 2.96447C3.16373 2.26521 4.05465 1.789 5.02455 1.59608C5.99446 1.40315 6.99979 1.50217 7.91342 1.8806C8.82705 2.25904 9.60794 2.89991 10.1573 3.72215C10.7068 4.5444 11 5.5111 11 6.5C10.9984 7.8256 10.4711 9.09644 9.53378 10.0338C8.59644 10.9711 7.3256 11.4984 6 11.5ZM6 2.5C5.20888 2.5 4.43552 2.7346 3.77772 3.17412C3.11992 3.61365 2.60723 4.23836 2.30448 4.96927C2.00173 5.70017 1.92252 6.50444 2.07686 7.28036C2.2312 8.05629 2.61216 8.76902 3.17158 9.32843C3.73099 9.88784 4.44372 10.2688 5.21964 10.4231C5.99557 10.5775 6.79983 10.4983 7.53074 10.1955C8.26164 9.89277 8.88635 9.38008 9.32588 8.72228C9.76541 8.06449 10 7.29113 10 6.5C9.99868 5.43954 9.57683 4.4229 8.82697 3.67304C8.07711 2.92318 7.06046 2.50133 6 2.5Z" fill="#495057"/>
<path d="M6.5 4H5.5V6.707L7.147 8.353L7.854 7.646L6.5 6.293V4Z" fill="#495057"/>
</svg>
