<svg width="23" height="23" viewBox="0 0 23 23" fill="none" xmlns="http://www.w3.org/2000/svg">
<mask id="mask0_207_1319" style="mask-type:luminance" maskUnits="userSpaceOnUse" x="0" y="0" width="23" height="23">
<path d="M23 0H0V23H23V0Z" fill="white"/>
</mask>
<g mask="url(#mask0_207_1319)">
<path d="M4.79199 20.859V17.25H3.83399C3.32573 17.2495 2.83845 17.0473 2.47905 16.6879C2.11966 16.3285 1.91752 15.8413 1.91699 15.333V7.667C1.91752 7.15874 2.11966 6.67145 2.47905 6.31206C2.83845 5.95267 3.32573 5.75053 3.83399 5.75H15.334C15.8422 5.75053 16.3295 5.95267 16.6889 6.31206C17.0483 6.67145 17.2505 7.15874 17.251 7.667V15.333C17.2505 15.8413 17.0483 16.3285 16.6889 16.6879C16.3295 17.0473 15.8422 17.2495 15.334 17.25H10.808L6.24399 19.987L4.79399 20.857L4.79199 20.859ZM3.83399 7.667V15.333H6.70899V17.474L10.277 15.333H15.334V7.667H3.83399Z" fill="#6A7187"/>
<path d="M19.167 1.91699H7.667C7.15874 1.91752 6.67145 2.11966 6.31206 2.47905C5.95267 2.83845 5.75053 3.32573 5.75 3.83399H17.25C17.7583 3.83452 18.2455 4.03666 18.6049 4.39605C18.9643 4.75545 19.1665 5.24273 19.167 5.75099V13.417C19.6753 13.4165 20.1625 13.2143 20.5219 12.8549C20.8813 12.4955 21.0835 12.0082 21.084 11.5V3.83399C21.0835 3.32573 20.8813 2.83845 20.5219 2.47905C20.1625 2.11966 19.6753 1.91752 19.167 1.91699Z" fill="#6A7187"/>
</g>
</svg>
