<svg width="24" height="18" viewBox="0 0 24 18" fill="none" xmlns="http://www.w3.org/2000/svg">
<path d="M15 0H9C4.02944 0 0 4.02944 0 9C0 13.9706 4.02944 18 9 18H15C19.9706 18 24 13.9706 24 9C24 4.02944 19.9706 0 15 0Z" fill="#E9420C"/>
<path d="M8.696 6.412C8.744 5.668 9.028 5.088 9.548 4.672C10.076 4.256 10.748 4.048 11.564 4.048C12.124 4.048 12.608 4.148 13.016 4.348C13.424 4.548 13.732 4.82 13.94 5.164C14.148 5.508 14.252 5.896 14.252 6.328C14.252 6.824 14.12 7.248 13.856 7.6C13.592 7.952 13.276 8.188 12.908 8.308V8.356C13.38 8.5 13.748 8.764 14.012 9.148C14.276 9.524 14.408 10.008 14.408 10.6C14.408 11.072 14.3 11.492 14.084 11.86C13.868 12.228 13.548 12.52 13.124 12.736C12.7 12.944 12.192 13.048 11.6 13.048C10.736 13.048 10.024 12.828 9.464 12.388C8.912 11.94 8.616 11.3 8.576 10.468H9.896C9.928 10.892 10.092 11.24 10.388 11.512C10.684 11.776 11.084 11.908 11.588 11.908C12.076 11.908 12.452 11.776 12.716 11.512C12.98 11.24 13.112 10.892 13.112 10.468C13.112 9.908 12.932 9.512 12.572 9.28C12.22 9.04 11.676 8.92 10.94 8.92H10.628V7.792H10.952C11.6 7.784 12.092 7.676 12.428 7.468C12.772 7.26 12.944 6.932 12.944 6.484C12.944 6.1 12.82 5.796 12.572 5.572C12.324 5.34 11.972 5.224 11.516 5.224C11.068 5.224 10.72 5.34 10.472 5.572C10.224 5.796 10.076 6.076 10.028 6.412H8.696Z" fill="white"/>
</svg>
