<svg width="14" height="15" viewBox="0 0 14 15" fill="none" xmlns="http://www.w3.org/2000/svg">
<path d="M4.77046 1.9753C4.92059 1.54391 5.19899 1.17035 5.5673 0.906125C5.9356 0.641894 6.37568 0.5 6.82686 0.5C7.27804 0.5 7.71812 0.641894 8.08643 0.906125C8.45473 1.17035 8.73314 1.54391 8.88326 1.9753M13.0033 3.44879H0.650391M11.792 5.29066L11.4578 10.3742C11.3291 12.3295 11.2652 13.3072 10.6367 13.9032C10.0081 14.5 9.04094 14.5 7.10807 14.5H6.54565C4.61278 14.5 3.64562 14.5 3.01707 13.9032C2.38852 13.3072 2.32385 12.3295 2.19596 10.3742L1.86171 5.29066M5.01025 7.13253L5.37357 10.8163M8.64347 7.13253L8.28015 10.8163" stroke="#6A7187" stroke-linecap="round"/>
</svg>
