<svg width="48" height="48" viewBox="0 0 48 48" fill="none" xmlns="http://www.w3.org/2000/svg">
<path d="M0 24C0 19.2533 1.40758 14.6131 4.04473 10.6663C6.68188 6.71954 10.4302 3.64341 14.8156 1.8269C19.201 0.0103989 24.0266 -0.464881 28.6822 0.461164C33.3377 1.38721 37.6141 3.67299 40.9706 7.02945C44.327 10.3859 46.6128 14.6623 47.5388 19.3178C48.4649 23.9734 47.9896 28.799 46.1731 33.1844C44.3566 37.5698 41.2805 41.3181 37.3337 43.9553C33.3869 46.5924 28.7468 48 24 48C17.6348 48 11.5303 45.4714 7.02944 40.9706C2.52856 36.4697 0 30.3652 0 24Z" fill="#EFF2F7"/>
<path d="M30.3801 20.8265L26.3699 16.8635L27.6909 15.5425C28.0526 15.1808 28.497 15 29.0242 15C29.5513 15 29.9954 15.1808 30.3565 15.5425L31.6775 16.8635C32.0392 17.2252 32.2279 17.6618 32.2436 18.1732C32.2593 18.6846 32.0863 19.1208 31.7246 19.4819L30.3801 20.8265ZM29.0119 22.2182L19.0101 32.22H15V28.2099L25.0018 18.2081L29.0119 22.2182Z" fill="#495057"/>
</svg>
