<svg width="16" height="17" viewBox="0 0 16 17" fill="none" xmlns="http://www.w3.org/2000/svg">
<path d="M15.74 3.59292C15.8224 3.51072 15.8878 3.41306 15.9324 3.30556C15.977 3.19806 15.9999 3.08281 15.9999 2.96642C15.9999 2.85003 15.977 2.73479 15.9324 2.62728C15.8878 2.51978 15.8224 2.42213 15.74 2.33992L13.66 0.259922C13.5778 0.177529 13.4801 0.11216 13.3726 0.0675592C13.2651 0.022958 13.1499 0 13.0335 0C12.9171 0 12.8019 0.022958 12.6944 0.0675592C12.5869 0.11216 12.4892 0.177529 12.407 0.259922L10.772 1.88692L14.1 5.21992M0 12.6679V16.0029H3.333L13.163 6.16392L9.83 2.82892L0 12.6679Z" fill="#E9420C"/>
</svg>
