<svg width="158" height="158" viewBox="0 0 158 158" fill="none" xmlns="http://www.w3.org/2000/svg">
<path d="M54.3333 62.5556H54.4156M103.667 62.5556H103.749M54.3333 103.667H103.667M5 79C5 88.7178 6.91407 98.3405 10.6329 107.319C14.3518 116.297 19.8026 124.454 26.6741 131.326C33.5456 138.197 41.7033 143.648 50.6814 147.367C59.6595 151.086 69.2822 153 79 153C88.7178 153 98.3405 151.086 107.319 147.367C116.297 143.648 124.454 138.197 131.326 131.326C138.197 124.454 143.648 116.297 147.367 107.319C151.086 98.3405 153 88.7178 153 79C153 69.2822 151.086 59.6595 147.367 50.6814C143.648 41.7033 138.197 33.5456 131.326 26.6741C124.454 19.8026 116.297 14.3518 107.319 10.6329C98.3405 6.91407 88.7178 5 79 5C69.2822 5 59.6595 6.91407 50.6814 10.6329C41.7033 14.3518 33.5456 19.8026 26.6741 26.6741C19.8026 33.5456 14.3518 41.7033 10.6329 50.6814C6.91407 59.6595 5 69.2822 5 79Z" stroke="#E9420C" stroke-width="10" stroke-linecap="round" stroke-linejoin="round"/>
</svg>
