<svg width="48" height="48" viewBox="0 0 48 48" fill="none" xmlns="http://www.w3.org/2000/svg">
<path d="M0 24C0 19.2533 1.40758 14.6131 4.04473 10.6663C6.68188 6.71954 10.4302 3.64341 14.8156 1.8269C19.201 0.0103989 24.0266 -0.464881 28.6822 0.461164C33.3377 1.38721 37.6141 3.67299 40.9706 7.02945C44.327 10.3859 46.6128 14.6623 47.5388 19.3178C48.4649 23.9734 47.9896 28.799 46.1731 33.1844C44.3566 37.5698 41.2805 41.3181 37.3337 43.9553C33.3869 46.5924 28.7468 48 24 48C17.6348 48 11.5303 45.4714 7.02944 40.9706C2.52856 36.4697 0 30.3652 0 24Z" fill="#EFF2F7"/>
<path d="M27.1667 19.6667H21.6667M27.1667 23.3333H21.6667M27.1667 27H23.5M18 16H30.8333V32.5L29.8873 31.6897C29.5551 31.4049 29.1319 31.2484 28.6943 31.2484C28.2567 31.2484 27.8335 31.4049 27.5012 31.6897L26.5553 32.5L25.6102 31.6897C25.2778 31.4047 24.8545 31.248 24.4167 31.248C23.9789 31.248 23.5555 31.4047 23.2232 31.6897L22.2781 32.5L21.3321 31.6897C20.9998 31.4049 20.5766 31.2484 20.139 31.2484C19.7014 31.2484 19.2783 31.4049 18.946 31.6897L18 32.5V16Z" stroke="#495057" stroke-width="1.33333" stroke-linecap="round" stroke-linejoin="round"/>
</svg>
