<svg width="23" height="23" viewBox="0 0 23 23" fill="none" xmlns="http://www.w3.org/2000/svg">
<path d="M18.3841 20.5H4.61707C3.82837 20.4923 3.07491 20.1722 2.52189 19.6098C1.96888 19.0475 1.66147 18.2887 1.66707 17.5V3.5C1.6652 3.23715 1.76763 2.98429 1.95189 2.79684C2.13616 2.60939 2.38723 2.50264 2.65007 2.5L16.4171 2.5C16.6799 2.50264 16.931 2.60939 17.1152 2.79684C17.2995 2.98429 17.4019 3.23715 17.4001 3.5V10.5H20.3501C20.6129 10.5026 20.864 10.6094 21.0482 10.7968C21.2325 10.9843 21.3349 11.2372 21.3331 11.5V17.5C21.3387 18.2885 21.0314 19.0471 20.4786 19.6095C19.9258 20.1718 19.1726 20.4921 18.3841 20.5ZM17.4011 12.5V17.5C17.3951 17.6328 17.4161 17.7655 17.4628 17.89C17.5095 18.0144 17.5809 18.1282 17.6728 18.2243C17.7646 18.3204 17.875 18.3969 17.9973 18.4491C18.1195 18.5014 18.2511 18.5284 18.3841 18.5284C18.517 18.5284 18.6486 18.5014 18.7708 18.4491C18.8931 18.3969 19.0035 18.3204 19.0954 18.2243C19.1872 18.1282 19.2587 18.0144 19.3054 17.89C19.3521 17.7655 19.3731 17.6328 19.3671 17.5V12.5H17.4011ZM3.63407 4.5V17.5C3.6322 17.7628 3.73463 18.0157 3.91889 18.2032C4.10316 18.3906 4.35423 18.4974 4.61707 18.5H15.6011C15.4896 18.1784 15.4328 17.8404 15.4331 17.5V4.5H3.63407Z" fill="#E9420C"/>
<path d="M12.791 15.666H10.291V13.999H12.791V15.665V15.666ZM12.791 12.333H6.125V10.667H12.791V12.333ZM12.791 8.99901H6.125V7.33301H12.791V8.99901Z" fill="#E9420C"/>
</svg>
