<?xml version="1.0" encoding="UTF-8"?>
<svg id="Layer_2" data-name="Layer 2" height="50px" xmlns="http://www.w3.org/2000/svg" viewBox="0 0 913.64 239.03">
  <defs>
    <style>
      .cls-1 {
        fill: #e9420c;
      }

      .cls-2 {
        fill: #112658;
      }
    </style>
  </defs>
  <g id="Logo" data-name="Logo">
    <g id="X">
      <path id="X-2" class="cls-2" d="M913.34,238.43c-.51,.67-1.47,.81-2.15,.31l-104.84-77.1-56.01,33.18c-.65,.38-1.5,.4-2.2,0-1.01-.61-1.33-1.89-.74-2.89l44.45-73.03,14.5-23.84,18.01,23.84,88.98,117.71c.39,.53,.42,1.26,0,1.82"/>
      <path id="X-1" class="cls-1" d="M913.34,.61c-.51-.67-1.47-.81-2.15-.31l-104.84,77.1-56.01-33.18c-.65-.38-1.5-.4-2.2,0-1.01,.61-1.33,1.89-.74,2.89l44.45,73.03,14.5,23.84,18.01-23.84L913.34,2.41c.39-.51,.42-1.25,0-1.81"/>
    </g>
    <path id="A" class="cls-2" d="M726.23,160.02l-6.62-21.41h-38.36l-7.23,21.41h-22.85l37.03-103.86h25.02l36.64,103.86h-23.63Zm-12.68-39.36l-12.9-41.09h-.28l-13.34,41.09h26.52Z"/>
    <path id="T" class="cls-2" d="M614.98,74.51v85.51h-21.68V74.51h-31.41v-18.35h84.51v18.35h-31.41Z"/>
    <path id="E" class="cls-2" d="M455.41,74.51v21.85h50.65v18.4h-50.65v26.91h57.6v18.35h-78.84V56.16h76.39v18.35h-55.15Z"/>
    <path id="S" class="cls-2" d="M372.26,71.34c-5.31,0-9.66,1.14-13.07,3.39-3.38,2.27-5.06,5.28-5.06,9.06,0,2.78,.79,5.06,2.39,6.84,1.58,1.78,4.91,3.27,9.95,4.45l24.41,5.89c10.04,2.42,17.01,5.89,20.9,10.45,3.92,4.53,5.89,10.31,5.89,17.35,0,7.42-1.82,13.68-5.45,18.79-3.6,5.11-8.49,8.94-14.68,11.45-6.2,2.47-13.18,3.73-20.96,3.73-13.72,0-24.44-2.89-32.14-8.67-7.71-5.78-11.77-14.46-12.18-26.02h20.85c.18,5.31,2.14,9.44,5.89,12.4,3.78,2.93,9.15,4.39,16.12,4.39s12.41-1.11,16.12-3.34c3.7-2.22,5.56-5.59,5.56-10.12,0-2.89-1-5.14-3-6.78-1.97-1.67-5.27-3.17-9.9-4.5-4.64-1.36-12.34-3.25-23.13-5.67-9.45-2.11-16.32-5.48-20.57-10.12-4.23-4.63-6.34-10.95-6.34-18.96,0-6.14,1.46-11.63,4.39-16.46,2.96-4.81,7.42-8.59,13.4-11.34,5.96-2.78,13.34-4.17,22.13-4.17,8.01,0,15.01,1.39,21.02,4.17,6.03,2.75,10.74,6.66,14.12,11.73,3.41,5.05,5.2,10.94,5.39,17.68h-20.85c-.97-10.41-8.05-15.62-21.24-15.62Z"/>
    <path id="I" class="cls-2" d="M295.73,160.02V56.16h21.68v103.86h-21.68Z"/>
    <path id="V" class="cls-2" d="M238.54,134.83l22.57-78.67h22.57l-35.3,103.86h-20.68l-35.03-103.86h23.3l22.29,78.67h.28Z"/>
    <path id="E-2" data-name="E" class="cls-2" d="M125.69,74.51v21.85h50.65v18.4h-50.65v26.91h57.6v18.35H104.46V56.16h76.39v18.35h-55.15Z"/>
    <path id="R" class="cls-2" d="M85.18,85.52c0,5.89-1.42,11.06-4.23,15.51-2.78,4.42-6.71,7.49-11.79,9.23l3.45,1.72c3.96,2.11,6.56,5.11,7.78,9.01,1.25,3.86,1.89,8.67,1.89,14.46v9.67c0,7.34,1.56,11.4,4.67,12.18v2.72h-24.02c-.6-1.74-1.11-4-1.56-6.78-.42-2.81-.61-5.46-.61-7.95l-.17-11.29c0-4.45-.78-7.7-2.34-9.79-1.53-2.07-3.45-3.39-5.78-3.95-2.31-.58-5.28-.89-8.95-.89H21.24v40.64H0V56.16H53.65c6.45,0,12.06,1.36,16.85,4.06,4.78,2.67,8.41,6.23,10.9,10.67,2.52,4.45,3.78,9.33,3.78,14.62Zm-21.68,2.17c0-4.14-1.33-7.45-4-9.9-2.64-2.47-6.17-3.73-10.62-3.73H21.24v27.8h26.08c5.37,0,9.41-1.07,12.12-3.22,2.7-2.18,4.06-5.84,4.06-10.95Z"/>
  </g>
</svg>