<svg width="28" height="18" viewBox="0 0 28 18" fill="none" xmlns="http://www.w3.org/2000/svg">
<path d="M17.5 0H10.5C4.70101 0 0 4.02944 0 9C0 13.9706 4.70101 18 10.5 18H17.5C23.299 18 28 13.9706 28 9C28 4.02944 23.299 0 17.5 0Z" fill="#E9420C"/>
<path d="M9.45 6.25195V5.21195H11.53V12.502H10.38V6.25195H9.45ZM13.7261 10.952C14.3661 10.3986 14.8694 9.94529 15.2361 9.59195C15.6094 9.23195 15.9194 8.85862 16.1661 8.47195C16.4128 8.08529 16.5361 7.69862 16.5361 7.31195C16.5361 6.91195 16.4394 6.59862 16.2461 6.37195C16.0594 6.14529 15.7628 6.03195 15.3561 6.03195C14.9628 6.03195 14.6561 6.15862 14.4361 6.41195C14.2228 6.65862 14.1094 6.99195 14.0961 7.41195H12.9961C13.0161 6.65195 13.2428 6.07195 13.6761 5.67195C14.1161 5.26529 14.6728 5.06195 15.3461 5.06195C16.0728 5.06195 16.6394 5.26195 17.0461 5.66195C17.4594 6.06195 17.6661 6.59529 17.6661 7.26195C17.6661 7.74195 17.5428 8.20529 17.2961 8.65195C17.0561 9.09195 16.7661 9.48862 16.4261 9.84195C16.0928 10.1886 15.6661 10.592 15.1461 11.052L14.6961 11.452H17.8661V12.402H13.0061V11.572L13.7261 10.952Z" fill="white"/>
</svg>
