
<svg version="1.1" id="Logo" xmlns="http://www.w3.org/2000/svg" xmlns:xlink="http://www.w3.org/1999/xlink" x="0px"
	 y="0px" viewBox="0 0 913.6 239.9" style="enable-background:new 0 0 913.6 239.9;" xml:space="preserve">
<style type="text/css">
	.st0{fill:#112658;}
	.st1{fill:#E9420C;}
</style>
<g id="Full_Logo">
	<g id="X">
		<path id="X-2" class="st0" d="M913.3,239.3c-0.5,0.7-1.5,0.8-2.2,0.3l-104.8-77.1l-56,33.2c-0.7,0.4-1.5,0.4-2.2,0
			c-1-0.6-1.3-1.9-0.7-2.9l44.5-73L806.4,96l18,23.8l89,117.7C913.7,238,913.7,238.8,913.3,239.3"/>
		<path id="X-1" class="st1" d="M913.3,1.5c-0.5-0.7-1.5-0.8-2.2-0.3L806.3,78.3l-56-33.2c-0.7-0.4-1.5-0.4-2.2,0
			c-1,0.6-1.3,1.9-0.7,2.9l44.5,73l14.5,23.8l18-23.8l89-117.7C913.7,2.8,913.7,2,913.3,1.5"/>
	</g>
	<path id="A" class="st0" d="M726.2,160.9l-6.6-21.4h-38.4l-7.2,21.4h-22.9l37-103.9h25l36.7,103.9H726.2z M713.5,121.5l-12.9-41.1
		h-0.3L687,121.5H713.5z"/>
	<path id="T" class="st0" d="M615,75.4v85.5h-21.7V75.4h-31.4V57.1h84.5v18.3H615z"/>
	<path id="E_00000096026533193028311050000003939277918009818250_" class="st0" d="M455.4,75.4v21.8H506v18.4h-50.6v26.9H513v18.3
		h-78.8V57h76.4v18.4H455.4z"/>
	<path id="S" class="st0" d="M372.2,72.2c-5.3,0-9.7,1.1-13.1,3.4c-3.4,2.3-5.1,5.3-5.1,9.1c0,2.8,0.8,5.1,2.4,6.8
		c1.6,1.8,4.9,3.3,10,4.4l24.4,5.9c10,2.4,17,5.9,20.9,10.5c3.9,4.5,5.9,10.3,5.9,17.3c0,7.4-1.8,13.7-5.4,18.8
		c-3.6,5.1-8.5,8.9-14.7,11.5c-6.2,2.5-13.2,3.7-21,3.7c-13.7,0-24.4-2.9-32.1-8.7s-11.8-14.5-12.2-26H353c0.2,5.3,2.1,9.4,5.9,12.4
		c3.8,2.9,9.1,4.4,16.1,4.4s12.4-1.1,16.1-3.3s5.6-5.6,5.6-10.1c0-2.9-1-5.1-3-6.8s-5.3-3.2-9.9-4.5c-4.6-1.4-12.3-3.3-23.1-5.7
		c-9.5-2.1-16.3-5.5-20.6-10.1c-4.2-4.6-6.3-11-6.3-19c0-6.1,1.5-11.6,4.4-16.5c3-4.8,7.4-8.6,13.4-11.3c6-2.8,13.3-4.2,22.1-4.2
		c8,0,15,1.4,21,4.2c6,2.8,10.7,6.7,14.1,11.7c3.4,5,5.2,10.9,5.4,17.7h-20.8C392.5,77.4,385.4,72.2,372.2,72.2z"/>
	<path id="I" class="st0" d="M295.7,160.9V57h21.7v103.9H295.7z"/>
	<path id="V" class="st0" d="M238.5,135.7L261.1,57h22.6l-35.3,103.9h-20.7L192.7,57H216l22.3,78.7H238.5z"/>
	<path id="E" class="st0" d="M125.7,75.4v21.8h50.6v18.4h-50.6v26.9h57.6v18.3h-78.8V57h76.3v18.4H125.7z"/>
	<path id="R" class="st0" d="M85.2,86.4c0,5.9-1.4,11.1-4.2,15.5s-6.7,7.5-11.8,9.2l3.4,1.7c4,2.1,6.6,5.1,7.8,9
		c1.3,3.9,1.9,8.7,1.9,14.5v9.7c0,7.3,1.6,11.4,4.7,12.2v2.7H63c-0.6-1.7-1.1-4-1.6-6.8c-0.4-2.8-0.6-5.5-0.6-8l-0.2-11.3
		c0-4.4-0.8-7.7-2.3-9.8s-3.4-3.4-5.8-3.9c-2.3-0.6-5.3-0.9-9-0.9H21.2v40.6H0V57h53.7c6.4,0,12.1,1.4,16.8,4.1
		c4.8,2.7,8.4,6.2,10.9,10.7C83.9,76.2,85.2,81.1,85.2,86.4z M63.5,88.6c0-4.1-1.3-7.5-4-9.9c-2.6-2.5-6.2-3.7-10.6-3.7H21.3v27.8
		h26.1c5.4,0,9.4-1.1,12.1-3.2C62.1,97.3,63.5,93.7,63.5,88.6z"/>
</g>
</svg>