<svg width="11" height="11" viewBox="0 0 11 11" fill="none" xmlns="http://www.w3.org/2000/svg">
<path d="M0 5.5C0 4.41221 0.322569 3.34884 0.926917 2.44437C1.53126 1.5399 2.39025 0.834947 3.39524 0.418665C4.40023 0.00238308 5.5061 -0.106535 6.573 0.105683C7.63989 0.317902 8.6199 0.841726 9.38909 1.61092C10.1583 2.3801 10.6821 3.36011 10.8943 4.42701C11.1065 5.4939 10.9976 6.59977 10.5813 7.60476C10.1651 8.60975 9.46011 9.46874 8.55564 10.0731C7.65117 10.6774 6.5878 11 5.5 11C4.04131 11 2.64236 10.4205 1.61091 9.38909C0.579463 8.35764 0 6.95869 0 5.5Z" fill="#E9420C"/>
</svg>
