<svg width="48" height="48" viewBox="0 0 48 48" fill="none" xmlns="http://www.w3.org/2000/svg">
<path d="M0 24C0 19.2533 1.40758 14.6131 4.04473 10.6663C6.68188 6.71954 10.4302 3.64341 14.8156 1.8269C19.201 0.0103989 24.0266 -0.464881 28.6822 0.461164C33.3377 1.38721 37.6141 3.67299 40.9706 7.02945C44.327 10.3859 46.6128 14.6623 47.5388 19.3178C48.4649 23.9734 47.9896 28.799 46.1731 33.1844C44.3566 37.5698 41.2805 41.3181 37.3337 43.9553C33.3869 46.5924 28.7468 48 24 48C17.6348 48 11.5303 45.4714 7.02944 40.9706C2.52856 36.4697 0 30.3652 0 24Z" fill="#EFF2F7"/>
<path d="M31.3333 28.7632H26.4444V31.2237H31.3333V33.6842L35 29.9934L31.3333 26.3026V28.7632ZM22.7778 14C20.0889 14 17.8889 16.2145 17.8889 18.9211C17.8889 21.6276 20.0889 23.8421 22.7778 23.8421C25.4667 23.8421 27.6667 21.6276 27.6667 18.9211C27.6667 16.2145 25.4667 14 22.7778 14ZM22.7778 16.4605C24.1222 16.4605 25.2222 17.5678 25.2222 18.9211C25.2222 20.2743 24.1222 21.3816 22.7778 21.3816C21.4333 21.3816 20.3333 20.2743 20.3333 18.9211C20.3333 17.5678 21.4333 16.4605 22.7778 16.4605ZM22.7778 25.0724C19.4778 25.0724 13 26.6717 13 29.9934V33.6842H24.6111C24.2444 32.9461 24.1222 32.2079 24 31.3467H15.3222V29.9934C15.3222 29.2553 19.1111 27.4099 22.7778 27.4099C23.3889 27.4099 24 27.5329 24.6111 27.5329C24.9778 26.7947 25.3444 26.0566 25.9556 25.4414C24.7333 25.1954 23.6333 25.0724 22.7778 25.0724Z" fill="#495057"/>
</svg>
