<svg width="21" height="22" viewBox="0 0 21 22" fill="none" xmlns="http://www.w3.org/2000/svg">
<path d="M17.484 19.305L13.378 15.2C12.0738 16.2239 10.4631 16.7793 8.80501 16.777C7.32719 16.777 5.88255 16.3388 4.65379 15.5178C3.42503 14.6967 2.46732 13.5298 1.90178 12.1644C1.33625 10.7991 1.18827 9.29672 1.47658 7.8473C1.76489 6.39787 2.47653 5.06649 3.52151 4.02151C4.56649 2.97653 5.89787 2.26489 7.3473 1.97658C8.79672 1.68827 10.2991 1.83625 11.6644 2.40178C13.0298 2.96732 14.1967 3.92503 15.0178 5.15379C15.8388 6.38255 16.277 7.82719 16.277 9.30501C16.2787 10.9633 15.7233 12.5741 14.7 13.879L18.805 17.984L17.486 19.304L17.484 19.305ZM8.80401 3.70501C7.69644 3.70501 6.61373 4.03345 5.69282 4.64878C4.7719 5.26412 4.05414 6.13872 3.63029 7.16198C3.20643 8.18525 3.09554 9.31122 3.31161 10.3975C3.52769 11.4838 4.06104 12.4816 4.84421 13.2648C5.62739 14.048 6.62521 14.5813 7.71151 14.7974C8.7978 15.0135 9.92377 14.9026 10.947 14.4787C11.9703 14.0549 12.8449 13.3371 13.4602 12.4162C14.0756 11.4953 14.404 10.4126 14.404 9.30501C14.4024 7.82 13.8122 6.39617 12.7627 5.34555C11.7132 4.29492 10.29 3.70319 8.80501 3.70001L8.80401 3.70501Z" fill="#74788D"/>
<path d="M9.69609 7.73204C9.82048 7.85555 9.91916 8.00247 9.98644 8.16432C10.0537 8.32618 10.0883 8.49976 10.0881 8.67504H11.4221C11.4229 8.32436 11.3541 7.977 11.2197 7.65309C11.0853 7.32918 10.8879 7.03515 10.6391 6.78804C10.1318 6.30296 9.45698 6.03223 8.75509 6.03223C8.05321 6.03223 7.37837 6.30296 6.87109 6.78804L7.81209 7.73204C8.06573 7.4895 8.40315 7.35414 8.75409 7.35414C9.10504 7.35414 9.44245 7.4895 9.69609 7.73204Z" fill="#74788D"/>
</svg>
