<svg width="21" height="21" viewBox="0 0 21 21" fill="none" xmlns="http://www.w3.org/2000/svg">
<path d="M17.484 18.805L13.378 14.7C12.0738 15.7239 10.4631 16.2793 8.80501 16.277C7.32719 16.277 5.88255 15.8388 4.65379 15.0178C3.42503 14.1967 2.46732 13.0298 1.90178 11.6644C1.33625 10.2991 1.18827 8.79672 1.47658 7.3473C1.76489 5.89787 2.47653 4.56649 3.52151 3.52151C4.56649 2.47653 5.89787 1.76489 7.3473 1.47658C8.79672 1.18827 10.2991 1.33625 11.6644 1.90178C13.0298 2.46732 14.1967 3.42503 15.0178 4.65379C15.8388 5.88255 16.277 7.32719 16.277 8.80501C16.2787 10.4633 15.7233 12.0741 14.7 13.379L18.805 17.484L17.486 18.804L17.484 18.805ZM8.80401 3.20501C7.69644 3.20501 6.61373 3.53345 5.69282 4.14878C4.7719 4.76412 4.05414 5.63872 3.63029 6.66198C3.20643 7.68525 3.09554 8.81122 3.31161 9.89752C3.52769 10.9838 4.06104 11.9816 4.84421 12.7648C5.62739 13.548 6.62521 14.0813 7.71151 14.2974C8.7978 14.5135 9.92377 14.4026 10.947 13.9787C11.9703 13.5549 12.8449 12.8371 13.4602 11.9162C14.0756 10.9953 14.404 9.91259 14.404 8.80501C14.4024 7.32 13.8122 5.89617 12.7627 4.84555C11.7132 3.79492 10.29 3.20319 8.80501 3.20001L8.80401 3.20501Z" fill="#495057"/>
<path d="M9.69609 7.23204C9.82048 7.35555 9.91916 7.50247 9.98644 7.66432C10.0537 7.82618 10.0883 7.99976 10.0881 8.17504H11.4221C11.4229 7.82436 11.3541 7.477 11.2197 7.15309C11.0853 6.82918 10.8879 6.53515 10.6391 6.28804C10.1318 5.80296 9.45698 5.53223 8.75509 5.53223C8.05321 5.53223 7.37837 5.80296 6.87109 6.28804L7.81209 7.23204C8.06573 6.9895 8.40315 6.85414 8.75409 6.85414C9.10504 6.85414 9.44245 6.9895 9.69609 7.23204Z" fill="#495057"/>
</svg>
