<svg width="48" height="48" viewBox="0 0 48 48" fill="none" xmlns="http://www.w3.org/2000/svg">
<path d="M0 24C0 19.2533 1.40758 14.6131 4.04473 10.6663C6.68188 6.71954 10.4302 3.64341 14.8156 1.8269C19.201 0.0103989 24.0266 -0.464881 28.6822 0.461164C33.3377 1.38721 37.6141 3.67299 40.9706 7.02945C44.327 10.3859 46.6128 14.6623 47.5388 19.3178C48.4649 23.9734 47.9896 28.799 46.1731 33.1844C44.3566 37.5698 41.2805 41.3181 37.3337 43.9553C33.3869 46.5924 28.7468 48 24 48C17.6348 48 11.5303 45.4714 7.02944 40.9706C2.52856 36.4697 0 30.3652 0 24Z" fill="#EFF2F7"/>
<path d="M30.2452 32.1558L29.7032 31.5748L28.4812 30.3218C28.1232 29.9448 27.7042 29.5308 27.2362 29.0918C26.9022 28.7628 26.6502 28.5568 26.6482 28.5548L25.4482 26.0348C24.2129 27.1207 22.6038 27.6839 20.961 27.6053C19.3181 27.5267 17.7701 26.8126 16.6441 25.6137C15.518 24.4149 14.9021 22.8253 14.9265 21.1807C14.9508 19.5361 15.6135 17.9654 16.7746 16.8005C17.9356 15.6355 19.504 14.9675 21.1485 14.9376C22.793 14.9077 24.3847 15.5182 25.5873 16.6402C26.79 17.7621 27.5093 19.3077 27.5935 20.9503C27.6776 22.5929 27.1199 24.2038 26.0382 25.4428L28.5592 26.6428C28.5592 26.6428 28.7592 26.8948 29.0952 27.2308C29.3952 27.5478 29.8472 28.0208 30.3262 28.4758L31.0352 29.1688L31.5772 29.6988L32.1592 30.2428L30.2502 32.1508L30.2452 32.1558ZM21.3002 16.7998C20.4102 16.7998 19.5402 17.0638 18.8002 17.5582C18.0601 18.0527 17.4834 18.7555 17.1428 19.5778C16.8022 20.4 16.7131 21.3048 16.8867 22.1777C17.0603 23.0507 17.4889 23.8525 18.1183 24.4818C18.7476 25.1112 19.5494 25.5397 20.4223 25.7134C21.2952 25.887 22.2 25.7979 23.0223 25.4573C23.8446 25.1167 24.5474 24.5399 25.0418 23.7999C25.5363 23.0599 25.8002 22.1899 25.8002 21.2998C25.8002 20.1064 25.3261 18.9618 24.4822 18.1179C23.6383 17.2739 22.4937 16.7998 21.3002 16.7998Z" fill="#495057"/>
</svg>
