<svg width="16" height="16" viewBox="0 0 16 16" fill="none" xmlns="http://www.w3.org/2000/svg">
<path d="M12.8619 13.805L9.93294 10.874C9.00206 11.6049 7.85245 12.0014 6.66894 12C5.61417 12 4.58309 11.6872 3.70608 11.1012C2.82908 10.5152 2.14553 9.68232 1.74189 8.70784C1.33825 7.73336 1.23264 6.66107 1.43841 5.62657C1.64419 4.59207 2.15211 3.64182 2.89794 2.89599C3.64377 2.15015 4.59402 1.64223 5.62852 1.43646C6.66302 1.23068 7.73531 1.3363 8.70979 1.73994C9.68427 2.14358 10.5172 2.82712 11.1032 3.70413C11.6892 4.58114 12.0019 5.61222 12.0019 6.66699C12.003 7.85137 11.6057 9.00168 10.8739 9.93299L13.8039 12.863L12.8619 13.805ZM6.66594 2.66599C5.87481 2.66599 5.10146 2.90058 4.44366 3.34011C3.78586 3.77963 3.27317 4.40435 2.97042 5.13525C2.66767 5.86616 2.58846 6.67042 2.7428 7.44635C2.89714 8.22227 3.2781 8.935 3.83751 9.49441C4.39692 10.0538 5.10965 10.4348 5.88558 10.5891C6.6615 10.7435 7.46577 10.6643 8.19667 10.3615C8.92758 10.0588 9.55229 9.54606 9.99182 8.88827C10.4313 8.23047 10.6659 7.45711 10.6659 6.66599C10.6646 5.60553 10.2428 4.58888 9.49291 3.83902C8.74305 3.08916 7.7264 2.66731 6.66594 2.66599Z" fill="#74788D"/>
<path d="M7.6082 5.72521C7.73259 5.84871 7.83127 5.99563 7.89855 6.15749C7.96583 6.31934 8.00038 6.49293 8.0002 6.66821H9.3342C9.33499 6.31752 9.26619 5.97016 9.13178 5.64625C8.99738 5.32234 8.80004 5.02832 8.5512 4.78121C8.04392 4.29612 7.36909 4.02539 6.6672 4.02539C5.96532 4.02539 5.29048 4.29612 4.7832 4.78121L5.7242 5.72521C5.97784 5.48266 6.31526 5.3473 6.6662 5.3473C7.01715 5.3473 7.35456 5.48266 7.6082 5.72521Z" fill="#74788D"/>
</svg>
