<svg width="28" height="18" viewBox="0 0 28 18" fill="none" xmlns="http://www.w3.org/2000/svg">
<path d="M17.5 0H10.5C4.70101 0 0 4.02944 0 9C0 13.9706 4.70101 18 10.5 18H17.5C23.299 18 28 13.9706 28 9C28 4.02944 23.299 0 17.5 0Z" fill="#E9420C"/>
<path d="M15.02 6.90195C14.9467 6.59529 14.8133 6.36529 14.62 6.21195C14.4267 6.05862 14.1567 5.98195 13.81 5.98195C13.2833 5.98195 12.89 6.18529 12.63 6.59195C12.37 6.99195 12.2333 7.65862 12.22 8.59195C12.3933 8.29862 12.6467 8.07195 12.98 7.91195C13.3133 7.75195 13.6733 7.67195 14.06 7.67195C14.5 7.67195 14.8867 7.76862 15.22 7.96195C15.56 8.14862 15.8233 8.42195 16.01 8.78195C16.2033 9.14195 16.3 9.57195 16.3 10.072C16.3 10.5386 16.2067 10.9553 16.02 11.322C15.84 11.6886 15.57 11.9786 15.21 12.192C14.85 12.3986 14.4167 12.502 13.91 12.502C13.2233 12.502 12.6833 12.352 12.29 12.052C11.9033 11.7453 11.63 11.3153 11.47 10.762C11.3167 10.2086 11.24 9.51862 11.24 8.69195C11.24 6.25195 12.1 5.03195 13.82 5.03195C14.4867 5.03195 15.01 5.21195 15.39 5.57195C15.7767 5.93195 16.0033 6.37529 16.07 6.90195H15.02ZM13.81 8.63195C13.4033 8.63195 13.0567 8.75529 12.77 9.00195C12.49 9.24195 12.35 9.59195 12.35 10.052C12.35 10.512 12.48 10.8786 12.74 11.152C13.0067 11.4186 13.3767 11.552 13.85 11.552C14.27 11.552 14.6 11.422 14.84 11.162C15.0867 10.902 15.21 10.5553 15.21 10.122C15.21 9.66862 15.09 9.30862 14.85 9.04195C14.6167 8.76862 14.27 8.63195 13.81 8.63195Z" fill="white"/>
</svg>
