<svg width="21" height="19" viewBox="0 0 21 19" fill="none" xmlns="http://www.w3.org/2000/svg">
<path d="M9.51553 18.199V16.235H17.3835V9.25203C17.3895 8.33098 17.2053 7.41862 16.8425 6.57203C16.143 4.92205 14.8295 3.60857 13.1795 2.90903C12.3311 2.55204 11.42 2.36815 10.4995 2.36815C9.57909 2.36815 8.66792 2.55204 7.81953 2.90903C6.16918 3.60836 4.85531 4.92186 4.15553 6.57203C3.79271 7.41862 3.60854 8.33098 3.61453 9.25203V15.252H2.63153C2.37287 15.2559 2.11616 15.2066 1.87726 15.1074C1.63837 15.0082 1.42234 14.861 1.24253 14.675C1.05645 14.4948 0.909193 14.2785 0.809795 14.0393C0.710398 13.8 0.660964 13.543 0.66453 13.284V11.317C0.656575 10.9647 0.750314 10.6175 0.93453 10.317C1.11425 10.0312 1.35844 9.79146 1.64753 9.61703L1.72153 8.31703C1.85042 7.17985 2.19706 6.07813 2.74253 5.07203C3.24935 4.13691 3.9247 3.30357 4.73453 2.61403C5.53014 1.94134 6.43709 1.41273 7.41453 1.05203C9.41531 0.314038 11.6137 0.314038 13.6145 1.05203C14.5908 1.41242 15.4942 1.94559 16.2815 2.62603C17.0813 3.32263 17.7516 4.1551 18.2615 5.08503C18.8051 6.07899 19.1515 7.16863 19.2815 8.29403L19.3555 9.57303C19.6519 9.7221 19.9009 9.95073 20.0747 10.2333C20.2485 10.5159 20.3402 10.8413 20.3395 11.173V13.435C20.3458 13.7743 20.2518 14.1078 20.0695 14.394C19.8944 14.6679 19.6479 14.8888 19.3565 15.033V16.233C19.3552 16.7552 19.1467 17.2556 18.7768 17.6242C18.4068 17.9928 17.9058 18.1996 17.3835 18.199H9.51553ZM7.54853 11.317C7.3258 11.3132 7.11126 11.2325 6.94122 11.0886C6.77118 10.9447 6.6561 10.7464 6.61546 10.5274C6.57483 10.3084 6.61114 10.082 6.71824 9.88671C6.82535 9.69139 6.99667 9.53909 7.20319 9.45559C7.4097 9.3721 7.63873 9.36255 7.85149 9.42855C8.06424 9.49456 8.24765 9.63206 8.37065 9.81779C8.49365 10.0035 8.54868 10.226 8.52642 10.4477C8.50417 10.6693 8.406 10.8765 8.24853 11.034C8.15743 11.1266 8.04829 11.1995 7.92789 11.2481C7.80748 11.2968 7.67836 11.3203 7.54853 11.317ZM13.4485 11.317C13.2258 11.3132 13.0113 11.2325 12.8412 11.0886C12.6712 10.9447 12.5561 10.7464 12.5155 10.5274C12.4748 10.3084 12.5111 10.082 12.6182 9.88671C12.7253 9.69139 12.8967 9.53909 13.1032 9.45559C13.3097 9.3721 13.5387 9.36255 13.7515 9.42855C13.9642 9.49456 14.1476 9.63206 14.2706 9.81779C14.3936 10.0035 14.4487 10.226 14.4264 10.4477C14.4042 10.6693 14.306 10.8765 14.1485 11.034C14.0575 11.1265 13.9486 11.1993 13.8283 11.2479C13.7081 11.2966 13.5782 11.3201 13.4485 11.317ZM4.62353 9.79303C4.54679 8.89619 4.68601 7.99401 5.02953 7.16203C5.3419 6.41189 5.80126 5.73187 6.38053 5.16203C7.50198 4.08318 8.9925 3.47238 10.5485 3.45403C11.9536 3.44253 13.3163 3.93464 14.3898 4.84122C15.4633 5.74779 16.1766 7.00888 16.4005 8.39603C14.9162 8.39654 13.4638 7.96499 12.2205 7.15403C11.0069 6.37921 10.0288 5.28665 9.39253 3.99503C9.14491 5.29179 8.57433 6.5052 7.73353 7.52303C6.90759 8.53434 5.83663 9.3175 4.62253 9.79803L4.62353 9.79303Z" fill="#E9420C"/>
</svg>
