<svg width="23" height="23" viewBox="0 0 23 23" fill="none" xmlns="http://www.w3.org/2000/svg">
<path d="M10.516 20.199V18.235H18.384V11.252C18.39 10.331 18.2058 9.41862 17.843 8.57203C17.1435 6.92205 15.83 5.60857 14.18 4.90903C13.3316 4.55204 12.4205 4.36815 11.5 4.36815C10.5796 4.36815 9.66841 4.55204 8.82002 4.90903C7.16966 5.60836 5.8558 6.92186 5.15602 8.57203C4.7932 9.41862 4.60903 10.331 4.61502 11.252V17.252H3.63202C3.37336 17.2559 3.11665 17.2066 2.87775 17.1074C2.63885 17.0082 2.42283 16.861 2.24302 16.675C2.05694 16.4948 1.90968 16.2785 1.81028 16.0393C1.71089 15.8 1.66145 15.543 1.66502 15.284V13.317C1.65706 12.9647 1.7508 12.6175 1.93502 12.317C2.11474 12.0312 2.35893 11.7915 2.64802 11.617L2.72202 10.317C2.85091 9.17985 3.19755 8.07813 3.74302 7.07203C4.24984 6.13691 4.92519 5.30357 5.73502 4.61403C6.53063 3.94134 7.43758 3.41273 8.41502 3.05203C10.4158 2.31404 12.6142 2.31404 14.615 3.05203C15.5913 3.41242 16.4947 3.94559 17.282 4.62603C18.0817 5.32263 18.7521 6.1551 19.262 7.08503C19.8056 8.07899 20.1519 9.16863 20.282 10.294L20.356 11.573C20.6524 11.7221 20.9014 11.9507 21.0752 12.2333C21.249 12.5159 21.3407 12.8413 21.34 13.173V15.435C21.3462 15.7743 21.2523 16.1078 21.07 16.394C20.8949 16.6679 20.6484 16.8888 20.357 17.033V18.233C20.3557 18.7552 20.1472 19.2556 19.7773 19.6242C19.4073 19.9928 18.9062 20.1996 18.384 20.199H10.516ZM8.54902 13.317C8.32629 13.3132 8.11174 13.2325 7.9417 13.0886C7.77167 12.9447 7.65658 12.7464 7.61595 12.5274C7.57532 12.3084 7.61163 12.082 7.71873 11.8867C7.82584 11.6914 7.99715 11.5391 8.20367 11.4556C8.41019 11.3721 8.63922 11.3625 8.85198 11.4286C9.06473 11.4946 9.24814 11.6321 9.37114 11.8178C9.49413 12.0035 9.54916 12.226 9.52691 12.4477C9.50466 12.6693 9.40648 12.8765 9.24902 13.034C9.15791 13.1266 9.04878 13.1995 8.92837 13.2481C8.80797 13.2968 8.67885 13.3203 8.54902 13.317ZM14.449 13.317C14.2263 13.3132 14.0117 13.2325 13.8417 13.0886C13.6717 12.9447 13.5566 12.7464 13.516 12.5274C13.4753 12.3084 13.5116 12.082 13.6187 11.8867C13.7258 11.6914 13.8972 11.5391 14.1037 11.4556C14.3102 11.3721 14.5392 11.3625 14.752 11.4286C14.9647 11.4946 15.1481 11.6321 15.2711 11.8178C15.3941 12.0035 15.4492 12.226 15.4269 12.4477C15.4047 12.6693 15.3065 12.8765 15.149 13.034C15.058 13.1265 14.9491 13.1993 14.8288 13.2479C14.7086 13.2966 14.5787 13.3201 14.449 13.317ZM5.62402 11.793C5.54728 10.8962 5.68649 9.99401 6.03002 9.16203C6.34239 8.41189 6.80175 7.73187 7.38102 7.16203C8.50247 6.08318 9.99299 5.47238 11.549 5.45403C12.9541 5.44253 14.3168 5.93464 15.3903 6.84122C16.4638 7.74779 17.1771 9.00888 17.401 10.396C15.9167 10.3965 14.4643 9.96499 13.221 9.15403C12.0074 8.37921 11.0293 7.28665 10.393 5.99503C10.1454 7.29179 9.57482 8.5052 8.73402 9.52303C7.90808 10.5343 6.83711 11.3175 5.62302 11.798L5.62402 11.793Z" fill="#6A7187"/>
</svg>
