<svg width="23" height="23" viewBox="0 0 23 23" fill="none" xmlns="http://www.w3.org/2000/svg">
<path d="M11.5 21.334C9.40445 21.325 7.3687 20.6346 5.69999 19.367H5.59999V19.292C4.3939 18.3789 3.41252 17.2021 2.73086 15.8516C2.0492 14.5011 1.68531 13.0127 1.66699 11.5C1.70117 8.90275 2.74812 6.4215 4.58481 4.58481C6.4215 2.74812 8.90275 1.70117 11.5 1.66699C14.0974 1.70092 16.5789 2.74775 18.4158 4.58447C20.2527 6.42118 21.2998 8.90258 21.334 11.5C21.3154 13.0127 20.9513 14.5012 20.2695 15.8516C19.5877 17.2021 18.6062 18.3789 17.4 19.292V19.367H17.3C15.6314 20.6348 13.5956 21.3253 11.5 21.334ZM10.517 15.998C9.84653 16.0019 9.19716 16.2328 8.67471 16.653C8.15226 17.0732 7.78754 17.658 7.63999 18.312C8.80912 19.0031 10.1424 19.3678 11.5005 19.3678C12.8586 19.3678 14.1919 19.0031 15.361 18.312C15.2134 17.658 14.8487 17.0732 14.3263 16.653C13.8038 16.2328 13.1545 16.0019 12.484 15.998H10.517ZM10.517 14.031H12.484C13.4528 14.0305 14.4001 14.3166 15.2067 14.8533C16.0133 15.39 16.6432 16.1532 17.017 17.047C17.7569 16.3244 18.3457 15.4618 18.7491 14.5095C19.1526 13.5572 19.3626 12.5342 19.367 11.5C19.3395 9.42216 18.5019 7.43718 17.0324 5.9679C15.5629 4.49862 13.5778 3.66118 11.5 3.63399C9.42234 3.66144 7.43749 4.49899 5.96824 5.96824C4.49899 7.43749 3.66144 9.42234 3.63399 11.5C3.63789 12.5343 3.84769 13.5575 4.25116 14.5098C4.65463 15.4622 5.2437 16.3247 5.98399 17.047C6.35772 16.1531 6.98754 15.3898 7.79416 14.8531C8.60078 14.3164 9.54815 14.0304 10.517 14.031Z" fill="#6A7187"/>
<path d="M11.5009 12.791C11.0605 12.8011 10.6225 12.7219 10.2136 12.558C9.80467 12.3942 9.43319 12.1491 9.12158 11.8377C8.80998 11.5263 8.56473 11.155 8.40064 10.7461C8.23655 10.3373 8.15703 9.89943 8.16688 9.45901C8.15676 9.01841 8.23608 8.58034 8.40004 8.17126C8.56401 7.76219 8.80922 7.39061 9.12085 7.07898C9.43248 6.76735 9.80406 6.52214 10.2131 6.35817C10.6222 6.19421 11.0603 6.11489 11.5009 6.12501C11.9413 6.11516 12.3792 6.19468 12.788 6.35877C13.1968 6.52286 13.5682 6.76811 13.8796 7.07971C14.191 7.39132 14.436 7.7628 14.5999 8.17174C14.7637 8.58068 14.843 9.01858 14.8329 9.45901C14.8427 9.89926 14.7632 10.3369 14.5993 10.7457C14.4353 11.1544 14.1902 11.5256 13.8789 11.837C13.5675 12.1484 13.1962 12.3934 12.7875 12.5574C12.3788 12.7214 11.9411 12.8008 11.5009 12.791ZM11.5009 7.79101C11.2793 7.78151 11.0583 7.81817 10.8516 7.89865C10.645 7.97912 10.4574 8.10167 10.3007 8.25851C10.1439 8.41534 10.0215 8.60305 9.94113 8.80971C9.86077 9.01637 9.82425 9.23748 9.83388 9.45901C9.82453 9.68037 9.86127 9.90126 9.94175 10.1077C10.0222 10.3141 10.1447 10.5016 10.3014 10.6582C10.4581 10.8148 10.6457 10.9372 10.8521 11.0175C11.0586 11.0979 11.2795 11.1345 11.5009 11.125C11.7221 11.1343 11.943 11.0976 12.1493 11.0172C12.3557 10.9368 12.5431 10.8144 12.6997 10.6578C12.8563 10.5012 12.9787 10.3138 13.0591 10.1074C13.1395 9.90108 13.1762 9.68028 13.1669 9.45901C13.1764 9.23765 13.1397 9.01674 13.0594 8.81027C12.979 8.6038 12.8567 8.41626 12.7 8.25955C12.5434 8.10284 12.356 7.98036 12.1495 7.89988C11.9431 7.8194 11.7222 7.78266 11.5009 7.79201V7.79101Z" fill="#6A7187"/>
</svg>
