<svg width="23" height="23" viewBox="0 0 23 23" fill="none" xmlns="http://www.w3.org/2000/svg">
<path d="M11.5 21.334C9.40445 21.325 7.3687 20.6346 5.69999 19.367H5.59999V19.292C4.3939 18.3789 3.41252 17.2021 2.73086 15.8516C2.0492 14.5011 1.68531 13.0127 1.66699 11.5C1.70117 8.90275 2.74812 6.4215 4.58481 4.58481C6.4215 2.74812 8.90275 1.70117 11.5 1.66699C14.0974 1.70092 16.5789 2.74775 18.4158 4.58447C20.2527 6.42118 21.2998 8.90258 21.334 11.5C21.3154 13.0127 20.9513 14.5012 20.2695 15.8516C19.5877 17.2021 18.6062 18.3789 17.4 19.292V19.367H17.3C15.6314 20.6348 13.5956 21.3253 11.5 21.334ZM10.517 15.998C9.84653 16.0019 9.19716 16.2328 8.67471 16.653C8.15226 17.0732 7.78754 17.658 7.63999 18.312C8.80912 19.0031 10.1424 19.3678 11.5005 19.3678C12.8586 19.3678 14.1919 19.0031 15.361 18.312C15.2134 17.658 14.8487 17.0732 14.3263 16.653C13.8038 16.2328 13.1545 16.0019 12.484 15.998H10.517ZM10.517 14.031H12.484C13.4528 14.0305 14.4001 14.3166 15.2067 14.8533C16.0133 15.39 16.6432 16.1532 17.017 17.047C17.7569 16.3244 18.3457 15.4618 18.7491 14.5095C19.1526 13.5572 19.3626 12.5342 19.367 11.5C19.3395 9.42216 18.5019 7.43718 17.0324 5.9679C15.5629 4.49862 13.5778 3.66118 11.5 3.63399C9.42234 3.66144 7.43749 4.49899 5.96824 5.96824C4.49899 7.43749 3.66144 9.42234 3.63399 11.5C3.63789 12.5343 3.84769 13.5575 4.25116 14.5098C4.65463 15.4622 5.2437 16.3247 5.98399 17.047C6.35772 16.1531 6.98754 15.3898 7.79416 14.8531C8.60078 14.3164 9.54815 14.0304 10.517 14.031Z" fill="#E9420C"/>
<path d="M11.5009 12.7909C11.0605 12.801 10.6225 12.7217 10.2136 12.5579C9.80467 12.394 9.43319 12.149 9.12158 11.8376C8.80998 11.5262 8.56473 11.1548 8.40064 10.746C8.23655 10.3372 8.15703 9.89931 8.16688 9.45888C8.15676 9.01829 8.23608 8.58021 8.40004 8.17114C8.56401 7.76207 8.80922 7.39049 9.12085 7.07886C9.43248 6.76723 9.80406 6.52202 10.2131 6.35805C10.6222 6.19408 11.0603 6.11476 11.5009 6.12488C11.9413 6.11504 12.3792 6.19456 12.788 6.35865C13.1968 6.52274 13.5682 6.76799 13.8796 7.07959C14.191 7.39119 14.436 7.76268 14.5999 8.17162C14.7637 8.58056 14.843 9.01846 14.8329 9.45888C14.8427 9.89914 14.7632 10.3368 14.5993 10.7455C14.4353 11.1542 14.1902 11.5255 13.8789 11.8369C13.5675 12.1483 13.1962 12.3933 12.7875 12.5573C12.3788 12.7213 11.9411 12.8007 11.5009 12.7909ZM11.5009 7.79088C11.2793 7.78139 11.0583 7.81804 10.8516 7.89852C10.645 7.979 10.4574 8.10155 10.3007 8.25838C10.1439 8.41522 10.0215 8.60293 9.94113 8.80959C9.86077 9.01625 9.82425 9.23736 9.83388 9.45888C9.82453 9.68024 9.86127 9.90113 9.94175 10.1076C10.0222 10.314 10.1447 10.5014 10.3014 10.6581C10.4581 10.8147 10.6457 10.937 10.8521 11.0174C11.0586 11.0978 11.2795 11.1344 11.5009 11.1249C11.7221 11.1342 11.943 11.0975 12.1493 11.0171C12.3557 10.9367 12.5431 10.8143 12.6997 10.6577C12.8563 10.5011 12.9787 10.3137 13.0591 10.1073C13.1395 9.90096 13.1762 9.68016 13.1669 9.45888C13.1764 9.23753 13.1397 9.01662 13.0594 8.81014C12.979 8.60367 12.8567 8.41614 12.7 8.25943C12.5434 8.10272 12.356 7.98024 12.1495 7.89976C11.9431 7.81928 11.7222 7.78254 11.5009 7.79188V7.79088Z" fill="#E9420C"/>
</svg>
