<svg width="23" height="23" viewBox="0 0 23 23" fill="none" xmlns="http://www.w3.org/2000/svg">
<path d="M17.249 21.084H5.75001C5.24175 21.0835 4.75446 20.8813 4.39507 20.5219C4.03568 20.1625 3.83354 19.6752 3.83301 19.167V3.83399C3.83354 3.32573 4.03568 2.83845 4.39507 2.47905C4.75446 2.11966 5.24175 1.91752 5.75001 1.91699L12.457 1.91699C12.4679 1.91741 12.4787 1.91943 12.489 1.92299C12.4978 1.92587 12.5068 1.92788 12.516 1.92899C12.6005 1.93447 12.6838 1.95094 12.764 1.97799L12.789 1.98599C12.8112 1.99264 12.8329 2.00066 12.854 2.00999C12.9573 2.05548 13.0517 2.11878 13.133 2.19699L18.883 7.94699C18.9616 8.02841 19.0249 8.12324 19.07 8.22699C19.0793 8.24783 19.0873 8.2692 19.094 8.29099L19.102 8.31599C19.1291 8.39618 19.1455 8.47955 19.151 8.56399C19.1522 8.57316 19.1542 8.5822 19.157 8.59099C19.1606 8.60131 19.1626 8.61209 19.163 8.62299V19.167C19.1625 19.6747 18.9608 20.1616 18.602 20.5209C18.2433 20.8802 17.7567 21.0827 17.249 21.084ZM5.75001 3.83399V19.167H17.25V9.58299H12.457C12.203 9.58273 11.9595 9.48171 11.7799 9.30211C11.6003 9.12251 11.4993 8.87899 11.499 8.62499V3.83399H5.75001ZM13.416 5.18899V7.66699H15.895L13.416 5.18899Z" fill="#E9420C"/>
<path d="M15.332 17.249H7.66602V15.332H15.332V17.248V17.249ZM15.332 13.417H7.66602V11.5H15.332V13.415V13.417ZM9.58302 9.58302H7.66602V7.66602H9.58302V9.58202V9.58302Z" fill="#E9420C"/>
</svg>
